<svg width="400" height="265" viewBox="0 0 400 265" fill="none" xmlns="http://www.w3.org/2000/svg">
<g clip-path="url(#clip0)">
<path d="M168.384 98.3762L161.377 93.9969L165.683 83.0663C166.097 82.0162 166.804 81.1071 167.72 80.4476C168.636 79.788 169.722 79.4058 170.849 79.3465C171.975 79.2872 173.095 79.5529 174.075 80.1119C175.055 80.671 175.853 81.4998 176.375 82.4997C176.897 83.4996 177.121 84.6285 177.02 85.7519C176.918 86.8753 176.496 87.9459 175.804 88.8363L168.384 98.3762Z" fill="#FEB8B8"/>
<path d="M131.524 216.806L121.877 212.622L127.111 201.849L134.903 206.408L131.524 216.806Z" fill="#FEB8B8"/>
<path d="M127.779 234.029L116.683 222.712C115.624 221.639 115.032 220.191 115.037 218.683C115.042 217.176 115.643 215.731 116.709 214.665L122.296 209.079C122.497 208.876 122.744 208.723 123.015 208.633C123.286 208.543 123.575 208.518 123.858 208.56C124.141 208.602 124.41 208.71 124.643 208.876C124.876 209.041 125.067 209.259 125.2 209.512C126.576 212.186 128.449 213.627 130.875 213.7C132.329 213.744 132.559 213.69 132.937 215.095L132.47 225.681L134.39 227.866C135.11 228.685 135.509 229.736 135.515 230.826C135.52 231.917 135.132 232.972 134.421 233.799C134.014 234.272 133.513 234.656 132.95 234.926C132.387 235.196 131.774 235.347 131.15 235.368C130.527 235.39 129.905 235.282 129.325 235.052C128.745 234.821 128.218 234.473 127.779 234.029Z" fill="#2F2E41"/>
<path d="M135.539 208.295L125.466 203.478L133.787 150.927L93.1116 154.317C80.251 155.388 69.6356 143.888 72.2423 131.249C73.0013 127.423 75.1041 123.996 78.1706 121.586L118.46 126.403L144.564 129.993C147.184 130.353 149.63 131.508 151.573 133.301C153.516 135.095 154.863 137.441 155.431 140.023C155.884 142.081 155.828 144.218 155.266 146.249L135.539 208.295Z" fill="#2F2E41"/>
<path d="M65.6885 264.569C100.758 264.569 129.188 236.139 129.188 201.07C129.188 166 100.758 137.57 65.6885 137.57C30.619 137.57 2.18945 166 2.18945 201.07C2.18945 236.139 30.619 264.569 65.6885 264.569Z" fill="#E6E6E6"/>
<path d="M161.815 91.3694L171.887 96.1866L155.863 122.512C155.161 123.665 154.134 124.585 152.912 125.157C151.689 125.73 150.324 125.928 148.989 125.728C147.715 125.536 146.52 124.99 145.542 124.151C144.563 123.311 143.842 122.213 143.459 120.983L125.559 86.7452C124.95 85.5806 124.599 84.2984 124.53 82.986C124.461 81.6736 124.676 80.3617 125.159 79.1397C125.643 77.9176 126.384 76.814 127.332 75.904C128.28 74.994 129.413 74.2989 130.654 73.866H130.654C131.804 73.4648 133.023 73.2973 134.239 73.3732C135.454 73.4492 136.643 73.7672 137.734 74.3085C138.825 74.8498 139.797 75.6035 140.594 76.5254C141.39 77.4474 141.994 78.519 142.37 79.6775L150.867 105.821L161.815 91.3694Z" fill="#3F3D56"/>
<path d="M117.764 78.5291C121.053 78.9848 124.43 77.9008 127.174 76.0324C129.918 74.1639 132.087 71.5596 133.923 68.7935C137.025 64.1145 139.262 58.9166 140.527 53.4471C141.573 54.7042 142.942 55.6523 144.486 56.1897C146.031 56.727 147.693 56.8332 149.293 56.4969C154.514 55.3246 157.646 49.2325 156.627 43.9789C155.609 38.7253 151.299 34.5601 146.38 32.4516C141.462 30.3431 135.98 29.9948 130.629 30.0067C127.1 30.0145 123.504 30.1791 120.189 31.3893C116.875 32.5996 113.838 35.0117 112.661 38.3381C111.922 40.4236 111.946 42.7318 111.107 44.7787C109.583 48.4946 105.631 50.5238 101.921 52.0635C98.2117 53.6031 94.179 55.1667 91.9915 58.5349C89.5213 62.3385 90.2342 67.647 92.9564 71.2746C95.6786 74.9021 100.051 77.0055 104.5 77.8851C108.949 78.7647 113.533 78.5471 118.063 78.326" fill="#2F2E41"/>
<path d="M116.196 216.806L106.549 212.622L111.783 201.849L119.574 206.408L116.196 216.806Z" fill="#FEB8B8"/>
<path d="M112.451 234.029L101.355 222.712C100.296 221.639 99.7041 220.191 99.709 218.683C99.714 217.176 100.315 215.731 101.381 214.665L106.968 209.079C107.169 208.876 107.415 208.723 107.687 208.633C107.958 208.543 108.247 208.518 108.53 208.56C108.813 208.602 109.081 208.71 109.315 208.876C109.548 209.041 109.739 209.259 109.872 209.512C111.247 212.186 113.121 213.627 115.547 213.7C117.001 213.744 117.231 213.69 117.609 215.095L117.142 225.681L119.062 227.866C119.781 228.685 120.181 229.736 120.187 230.826C120.192 231.917 119.804 232.972 119.093 233.799C118.686 234.272 118.185 234.656 117.622 234.926C117.059 235.196 116.446 235.347 115.822 235.368C115.198 235.39 114.577 235.282 113.997 235.052C113.416 234.821 112.89 234.473 112.451 234.029Z" fill="#2F2E41"/>
<path d="M118.898 210.923L108.826 206.106L117.146 153.555L76.471 156.944C63.6104 158.016 52.995 146.515 55.6017 133.876C56.3606 130.051 58.4635 126.623 61.53 124.214L101.819 129.031L127.924 132.62C130.543 132.98 132.99 134.135 134.933 135.929C136.876 137.722 138.222 140.068 138.791 142.651C139.244 144.708 139.187 146.846 138.626 148.877L118.898 210.923Z" fill="#2F2E41"/>
<path d="M133.566 67.2835C142.394 67.2835 149.551 60.1271 149.551 51.2993C149.551 42.4714 142.394 35.315 133.566 35.315C124.738 35.315 117.582 42.4714 117.582 51.2993C117.582 60.1271 124.738 67.2835 133.566 67.2835Z" fill="#FEB8B8"/>
<path d="M122.401 88.7418L115.832 70.7869C120.496 65.8375 121.523 59.7639 119.773 52.832L138.604 63.3422L122.401 88.7418Z" fill="#FEB8B8"/>
<path d="M109.264 131.221C97.572 135.123 82.0993 133.846 62.7128 127.208C62.1889 127.026 61.7172 126.72 61.3387 126.315C60.9603 125.909 60.6864 125.418 60.5411 124.883C60.3957 124.348 60.3831 123.785 60.5044 123.244C60.6258 122.703 60.8774 122.2 61.2373 121.778C74.3131 106.409 86.0446 91.3555 95.7258 76.785C99.3793 72.0612 104.577 68.7717 110.41 67.4913L119.336 65.5318L132.912 72.5386L136.469 74.5496C137.309 75.0239 138.042 75.664 138.626 76.4309C139.21 77.1979 139.631 78.0757 139.865 79.0108C140.099 79.9459 140.139 80.9188 139.985 81.8702C139.83 82.8216 139.484 83.7316 138.966 84.5448C133.515 97.8635 126.41 110.023 114.081 118.521L109.264 131.221Z" fill="#3F3D56"/>
<path d="M133.938 48.1893C135.903 51.3147 138.822 53.7239 142.264 55.06C144.701 55.9985 147.794 56.2317 149.623 54.3676C150.948 53.0173 151.212 50.9391 151.024 49.0565C150.437 43.1803 146.021 38.0632 140.541 35.8615C135.062 33.6598 128.736 34.1411 123.267 36.3702C118.108 38.4733 113.207 42.7819 112.93 48.3468C112.788 51.1987 113.82 54.339 112.289 56.7493C111.136 58.5646 108.909 59.3022 106.915 60.1061C104.92 60.91 102.779 62.1786 102.37 64.2898C102.092 65.7248 102.734 67.2227 103.743 68.2804C104.804 69.2931 106.059 70.0801 107.433 70.5935C110.685 71.9787 114.266 72.8421 117.761 72.3067C121.256 71.7712 124.635 69.643 126.003 66.3828C127.056 63.8721 126.84 61.0389 126.719 58.319C126.597 55.5991 126.634 52.7024 128.086 50.3994C129.538 48.0964 132.91 46.8071 135.08 48.4511" fill="#2F2E41"/>
<path opacity="0.2" d="M95.0312 94.2159C95.0312 94.2159 107.731 125.746 110.797 127.498C113.862 129.25 113.862 124.874 113.862 124.874L95.0312 94.2159Z" fill="black"/>
<path d="M194.712 83.9367L117.632 96.4758C117.254 96.5369 116.866 96.4454 116.555 96.2213C116.244 95.9973 116.035 95.659 115.973 95.2806L112.862 76.1604C112.801 75.7819 112.893 75.3946 113.117 75.0835C113.341 74.7724 113.679 74.5628 114.057 74.5008L191.137 61.9617C191.516 61.9006 191.903 61.9921 192.214 62.2162C192.525 62.4402 192.735 62.7785 192.797 63.1569L195.907 82.2771C195.968 82.6556 195.877 83.0429 195.653 83.354C195.429 83.6651 195.09 83.8747 194.712 83.9367Z" fill="#F38704"/>
<path d="M125.836 89.9367C129.19 89.9367 131.909 87.2173 131.909 83.8628C131.909 80.5083 129.19 77.7889 125.836 77.7889C122.481 77.7889 119.762 80.5083 119.762 83.8628C119.762 87.2173 122.481 89.9367 125.836 89.9367Z" fill="white"/>
<path d="M139.033 77.6137C138.901 77.6348 138.776 77.6817 138.662 77.7516C138.549 77.8215 138.451 77.913 138.373 78.0209C138.295 78.1288 138.239 78.251 138.209 78.3805C138.178 78.51 138.173 78.6443 138.195 78.7756C138.216 78.907 138.263 79.0328 138.333 79.1459C138.403 79.2591 138.495 79.3573 138.603 79.435C138.711 79.5126 138.833 79.5683 138.963 79.5987C139.092 79.629 139.227 79.6336 139.358 79.612L186.462 71.9493C186.593 71.9279 186.719 71.8809 186.832 71.811C186.945 71.7411 187.043 71.6495 187.121 71.5417C187.199 71.4338 187.254 71.3117 187.285 71.1823C187.315 71.0529 187.32 70.9188 187.299 70.7875C187.277 70.6563 187.23 70.5306 187.16 70.4175C187.091 70.3045 186.999 70.2063 186.891 70.1286C186.783 70.0509 186.661 69.9953 186.532 69.9648C186.402 69.9343 186.268 69.9296 186.137 69.9509L139.033 77.6137Z" fill="white"/>
<path d="M140.007 83.6088C139.876 83.6299 139.75 83.6768 139.637 83.7467C139.524 83.8166 139.425 83.9081 139.348 84.016C139.27 84.1239 139.214 84.2461 139.183 84.3756C139.153 84.5051 139.148 84.6394 139.169 84.7707C139.191 84.9021 139.238 85.0279 139.308 85.141C139.378 85.2542 139.47 85.3524 139.578 85.4301C139.686 85.5077 139.808 85.5634 139.937 85.5938C140.067 85.6241 140.201 85.6287 140.333 85.6071L187.437 77.9444C187.701 77.901 187.938 77.7543 188.095 77.5365C188.251 77.3187 188.315 77.0476 188.272 76.7828C188.229 76.518 188.083 76.2812 187.865 76.1243C187.647 75.9673 187.376 75.9032 187.112 75.946L140.007 83.6088Z" fill="white"/>
<path d="M138.604 105.821L131.598 101.442L135.904 90.5111C136.317 89.4609 137.024 88.5518 137.94 87.8923C138.856 87.2328 139.943 86.8505 141.07 86.7912C142.196 86.7319 143.316 86.9976 144.296 87.5567C145.275 88.1157 146.074 88.9445 146.596 89.9444C147.118 90.9443 147.341 92.0732 147.24 93.1966C147.139 94.32 146.717 95.3907 146.024 96.281L138.604 105.821Z" fill="#FEB8B8"/>
<path d="M131.598 98.8141L141.67 103.631L125.646 129.957C124.944 131.11 123.918 132.03 122.695 132.602C121.472 133.174 120.107 133.373 118.772 133.172C117.498 132.981 116.303 132.435 115.325 131.595C114.347 130.756 113.625 129.658 113.242 128.427L95.3422 94.19C94.7333 93.0253 94.3824 91.7431 94.3134 90.4307C94.2444 89.1183 94.459 87.8064 94.9424 86.5844C95.4259 85.3623 96.1669 84.2587 97.1151 83.3487C98.0633 82.4387 99.1964 81.7436 100.437 81.3107H100.437C101.587 80.9095 102.806 80.742 104.022 80.8179C105.238 80.8939 106.426 81.2119 107.517 81.7532C108.608 82.2945 109.581 83.0482 110.377 83.9701C111.173 84.8921 111.777 85.9637 112.153 87.1222L120.65 113.266L131.598 98.8141Z" fill="#3F3D56"/>
<path d="M383.408 193.647C377.605 201.849 376.073 248.532 375.731 263.496C375.722 263.833 375.713 264.153 375.709 264.455H361.021C360.842 264.135 360.675 263.82 360.517 263.496C351.812 246.312 356.642 225.707 356.896 224.665C356.235 227.941 359.226 237.435 362.606 246.631C364.669 218.354 382.304 195.074 383.408 193.647Z" fill="#E6E6E6"/>
<path d="M399.41 263.496L399.235 264.455H0.5V263.496H399.41Z" fill="#3F3D56"/>
<path d="M363.947 86.4094H245.707C245.127 86.4087 244.57 86.1778 244.16 85.7673C243.749 85.3568 243.518 84.8002 243.518 84.2197V54.8895C243.518 54.309 243.749 53.7524 244.16 53.3419C244.57 52.9314 245.127 52.7005 245.707 52.6998H363.947C364.528 52.7005 365.084 52.9314 365.495 53.3419C365.905 53.7524 366.136 54.309 366.137 54.8895V84.2197C366.136 84.8002 365.905 85.3568 365.495 85.7673C365.084 86.1778 364.528 86.4087 363.947 86.4094ZM245.707 53.5757C245.359 53.5761 245.025 53.7146 244.779 53.9609C244.532 54.2072 244.394 54.5412 244.393 54.8895V84.2197C244.394 84.5681 244.532 84.902 244.779 85.1483C245.025 85.3946 245.359 85.5331 245.707 85.5335H363.947C364.295 85.5331 364.629 85.3946 364.876 85.1483C365.122 84.902 365.261 84.5681 365.261 84.2197V54.8895C365.261 54.5412 365.122 54.2072 364.876 53.9609C364.629 53.7146 364.295 53.5761 363.947 53.5757H245.707Z" fill="#E6E6E6"/>
<path d="M261.034 78.7509C266.113 78.7509 270.231 74.6335 270.231 69.5545C270.231 64.4754 266.113 60.3581 261.034 60.3581C255.955 60.3581 251.838 64.4754 251.838 69.5545C251.838 74.6335 255.955 78.7509 261.034 78.7509Z" fill="#E6E6E6"/>
<path d="M282.273 63.4235C281.866 63.4235 281.477 63.585 281.189 63.8725C280.902 64.1599 280.74 64.5498 280.74 64.9563C280.74 65.3628 280.902 65.7526 281.189 66.0401C281.477 66.3275 281.866 66.489 282.273 66.489H354.53C354.937 66.489 355.327 66.3275 355.614 66.0401C355.902 65.7526 356.063 65.3628 356.063 64.9563C356.063 64.5498 355.902 64.1599 355.614 63.8725C355.327 63.585 354.937 63.4235 354.53 63.4235H282.273Z" fill="#E6E6E6"/>
<path d="M282.273 72.62C281.866 72.62 281.477 72.7814 281.189 73.0689C280.902 73.3563 280.74 73.7462 280.74 74.1527C280.74 74.5592 280.902 74.9491 281.189 75.2365C281.477 75.5239 281.866 75.6854 282.273 75.6854H354.53C354.937 75.6854 355.327 75.5239 355.614 75.2365C355.902 74.9491 356.063 74.5592 356.063 74.1527C356.063 73.7462 355.902 73.3563 355.614 73.0689C355.327 72.7814 354.937 72.62 354.53 72.62H282.273Z" fill="#E6E6E6"/>
<path d="M363.947 135.457H245.707C245.127 135.456 244.57 135.225 244.16 134.815C243.749 134.404 243.518 133.848 243.518 133.267V103.937C243.518 103.357 243.749 102.8 244.16 102.389C244.57 101.979 245.127 101.748 245.707 101.747H363.947C364.528 101.748 365.084 101.979 365.495 102.389C365.905 102.8 366.136 103.357 366.137 103.937V133.267C366.136 133.848 365.905 134.404 365.495 134.815C365.084 135.225 364.528 135.456 363.947 135.457ZM245.707 102.623C245.359 102.624 245.025 102.762 244.779 103.008C244.532 103.255 244.394 103.589 244.393 103.937V133.267C244.394 133.616 244.532 133.95 244.779 134.196C245.025 134.442 245.359 134.581 245.707 134.581H363.947C364.295 134.581 364.629 134.442 364.876 134.196C365.122 133.95 365.261 133.616 365.261 133.267V103.937C365.261 103.589 365.122 103.255 364.876 103.008C364.629 102.762 364.295 102.624 363.947 102.623H245.707Z" fill="#E6E6E6"/>
<path d="M261.034 127.799C266.113 127.799 270.231 123.681 270.231 118.602C270.231 113.523 266.113 109.406 261.034 109.406C255.955 109.406 251.838 113.523 251.838 118.602C251.838 123.681 255.955 127.799 261.034 127.799Z" fill="#E6E6E6"/>
<path d="M282.273 112.471C281.866 112.471 281.477 112.633 281.189 112.92C280.902 113.207 280.74 113.597 280.74 114.004C280.74 114.41 280.902 114.8 281.189 115.088C281.477 115.375 281.866 115.537 282.273 115.537H354.53C354.937 115.537 355.327 115.375 355.614 115.088C355.902 114.8 356.063 114.41 356.063 114.004C356.063 113.597 355.902 113.207 355.614 112.92C355.327 112.633 354.937 112.471 354.53 112.471H282.273Z" fill="#E6E6E6"/>
<path d="M282.273 121.668C281.866 121.668 281.477 121.829 281.189 122.116C280.902 122.404 280.74 122.794 280.74 123.2C280.74 123.607 280.902 123.997 281.189 124.284C281.477 124.572 281.866 124.733 282.273 124.733H354.53C354.937 124.733 355.327 124.572 355.614 124.284C355.902 123.997 356.063 123.607 356.063 123.2C356.063 122.794 355.902 122.404 355.614 122.116C355.327 121.829 354.937 121.668 354.53 121.668H282.273Z" fill="#E6E6E6"/>
<path d="M304.826 37.2857C301.189 37.2857 297.633 36.207 294.608 34.1859C291.583 32.1649 289.226 29.2923 287.834 25.9315C286.442 22.5706 286.077 18.8724 286.787 15.3046C287.497 11.7367 289.248 8.45941 291.821 5.88713C294.393 3.31484 297.67 1.5631 301.238 0.853406C304.806 0.143714 308.504 0.507955 311.865 1.90007C315.226 3.29218 318.098 5.64963 320.12 8.67431C322.141 11.699 323.219 15.2551 323.219 18.8928C323.214 23.7692 321.274 28.4443 317.826 31.8925C314.378 35.3406 309.703 37.2802 304.826 37.2857ZM304.826 1.37584C301.362 1.37584 297.975 2.40319 295.095 4.32798C292.214 6.25278 289.969 8.98855 288.643 12.1894C287.317 15.3902 286.97 18.9123 287.646 22.3102C288.322 25.7082 289.99 28.8294 292.44 31.2792C294.89 33.729 298.011 35.3973 301.409 36.0732C304.807 36.7491 308.329 36.4022 311.53 35.0764C314.731 33.7506 317.466 31.5054 319.391 28.6248C321.316 25.7441 322.343 22.3574 322.343 18.8928C322.338 14.2487 320.491 9.79621 317.207 6.51228C313.923 3.22835 309.471 1.38112 304.826 1.37584Z" fill="#F38704"/>
<path d="M312.085 17.0785H306.642V11.6355C306.642 11.1543 306.451 10.6928 306.111 10.3526C305.77 10.0123 305.309 9.82114 304.828 9.82114C304.346 9.82114 303.885 10.0123 303.545 10.3526C303.204 10.6928 303.013 11.1543 303.013 11.6355V17.0785H297.57C297.089 17.0785 296.628 17.2697 296.287 17.6099C295.947 17.9502 295.756 18.4117 295.756 18.8929C295.756 19.374 295.947 19.8355 296.287 20.1758C296.628 20.516 297.089 20.7072 297.57 20.7072H303.013V26.1502C303.013 26.6314 303.204 27.0929 303.545 27.4332C303.885 27.7734 304.346 27.9646 304.828 27.9646C305.309 27.9646 305.77 27.7734 306.111 27.4332C306.451 27.0929 306.642 26.6314 306.642 26.1502V20.7072H312.085C312.566 20.7072 313.028 20.516 313.368 20.1758C313.708 19.8355 313.899 19.3741 313.899 18.8929C313.899 18.4117 313.708 17.9502 313.368 17.6099C313.028 17.2697 312.566 17.0785 312.085 17.0785V17.0785Z" fill="#F38704"/>
</g>
<defs>
<clipPath id="clip0">
<rect width="398.91" height="264.069" fill="white" transform="translate(0.5 0.5)"/>
</clipPath>
</defs>
</svg>
